<svg width="587" height="593" viewBox="0 0 587 593" fill="none" xmlns="http://www.w3.org/2000/svg">
<path d="M439.027 347.604C443.006 340.416 446.629 333.007 449.856 325.376C462.061 296.52 468.251 265.891 468.251 234.341C468.251 202.791 462.063 172.163 449.856 143.306C438.076 115.455 421.221 90.452 399.759 68.99C378.297 47.528 353.293 30.673 325.443 18.893C296.587 6.689 265.958 0.5 234.409 0.5C202.86 0.5 172.23 6.689 143.374 18.895C115.523 30.675 90.5204 47.53 69.0584 68.992C47.5974 90.454 30.7414 115.457 18.9614 143.308C6.7554 172.165 0.566406 202.793 0.566406 234.342C0.566406 265.891 6.75441 296.52 18.9604 325.377C30.7404 353.229 47.5954 378.231 69.0574 399.693C90.5194 421.155 115.522 438.01 143.373 449.79C172.23 461.995 202.859 468.185 234.408 468.185C265.957 468.185 296.586 461.997 325.443 449.79C330.279 447.745 335.022 445.537 339.682 443.187L470.704 574.21C482.311 585.816 497.742 592.208 514.156 592.208C530.57 592.208 546.002 585.816 557.608 574.21L568.169 563.65C592.128 539.69 592.128 500.706 568.17 476.747L439.027 347.604ZM346.253 389.175C334.269 397.847 321.239 405.161 307.387 410.894C284.901 420.2 260.257 425.345 234.408 425.345C128.92 425.345 43.4064 339.83 43.4064 234.342C43.4064 128.854 128.92 43.34 234.408 43.34C339.896 43.34 425.411 128.855 425.411 234.342C425.411 263.477 418.877 291.082 407.211 315.789C400.898 329.162 393.08 341.684 383.972 353.135C373.106 366.795 360.411 378.93 346.253 389.175ZM537.877 533.358L527.316 543.918C523.681 547.553 518.919 549.369 514.157 549.369C509.394 549.369 504.632 547.552 500.997 543.918L376.871 419.792C384.882 413.623 392.526 406.927 399.76 399.693C404.922 394.531 409.811 389.159 414.434 383.596L537.877 507.04C545.144 514.308 545.144 526.09 537.877 533.358Z" fill="white"/>
</svg>
